<svg xmlns:xlink="http://www.w3.org/1999/xlink" xmlns="http://www.w3.org/2000/svg" width="40" height="56" viewBox="0 0 40 56" class="dd-glyph-svg dd-glyph-elevated" aria-hidden="true">
  <path d="m0 0h40v56h-40z" fill="none"></path>
  <path d="m20 10.7c9.5393 0 17.3 7.7607 17.3 17.3s-7.7607 17.3-17.3 17.3-17.3-7.7607-17.3-17.3 7.7607-17.3 17.3-17.3m0-2.2c-10.7696 0-19.5 8.7305-19.5 19.5s8.7304 19.5 19.5 19.5 19.5-8.7305 19.5-19.5-8.7304-19.5-19.5-19.5zm-1.3278 14.2374c1.6211 0 3.0078.7031 3.8477 1.875v-3.3984h-3.5742c-.4492 0-.7812-.3125-.7812-.7812 0-.4297.3125-.7617.7812-.7617h3.5742v-1.0742c0-.6055.3711-.9961.9766-.9961.5859 0 .9766.3906.9766.9961v1.0742h1.3281c.4688 0 .7617.332.7617.7617 0 .4688-.3125.7812-.7617.7812h-1.3281v12.3047c0 .5859-.3711.957-.9375.957s-.9375-.3711-.9375-.957v-1.0938c-.8594 1.2305-2.2852 1.9141-3.9062 1.9141-2.9883 0-5.2734-2.3438-5.2734-5.8008s2.2852-5.8008 5.2539-5.8008zm-3.6133 12.8516h9.2188c.4688 0 .7812.332.7812.8008 0 .4492-.332.7812-.7812.7812h-9.2188c-.4492 0-.7812-.332-.7812-.7812 0-.4688.3125-.8008.7812-.8008zm3.9062-3.0664c2.0312 0 3.5352-1.6992 3.5352-3.9648 0-2.2852-1.5039-3.9844-3.5352-3.9844-2.0508 0-3.5547 1.582-3.5547 3.9844s1.5039 3.9648 3.5547 3.9648z" fill="#68CC45"></path>
</svg>